<?xml version="1.0" encoding="utf-8"?>
<!-- Generator: Adobe Illustrator 22.1.0, SVG Export Plug-In . SVG Version: 6.00 Build 0)  -->
<svg version="1.1" id="Слой_1" xmlns="http://www.w3.org/2000/svg" xmlns:xlink="http://www.w3.org/1999/xlink" x="0px" y="0px"
	 viewBox="0 0 48 48" style="enable-background:new 0 0 48 48;" xml:space="preserve">
<style type="text/css">
	.st0{fill:#EDEDF2;}
	.st1{fill:#DDBEA8;}
	.st2{fill:#464747;}
	.st3{fill:#F9D9C0;}
</style>
<g id="Icons">
	<g>
		<path class="st0" d="M20.4,25.4l-0.1,1.4l-5.4,1.5C12,29,9.7,30.9,8.7,33.4l-1.4,3.5c0,0,16.1,6.1,33.5,0l-1.4-3.5
			c-1-2.4-3.3-4.3-6.2-5.1l-5.5-1.5l-0.2-1.4"/>
		<path class="st1" d="M27.7,27c0,3.8-7.4,3.8-7.4,0v-2.4l7.4-0.1V27z"/>
		<path class="st2" d="M18.5,20.1c0,0-2.6-4.1-2.6-6.6c0.1-2.6,1.6-2.1,1.9-2c0,0,1.7-2.3,5.5-2.9s6.9,0.3,6.9,0.3s-1,1.3-0.5,2.2
			c0.4,1,2.1,2.3,1.1,6.1l-1.9,3l-0.1-4.4l0-1.4L24,14.7l-5.5-0.8l1.2,2.4L18.5,20.1z"/>
		<path class="st3" d="M16.9,17.2c0,0-0.8,0.6-0.9,1.8c0,1.2,0.5,2.5,1.9,2.6c0,0,0.5,2.4,2.3,3.8c1.8,1.5,3.9,1.4,3.9,1.4
			s4.6-0.8,5.7-5.2c0,0,1.9-0.2,2.1-1.8c0.2-1.5-1.1-2.6-1.1-2.6l-1.5,2.3L29.2,16l0.3-2.1L24,14.2l-5.7-0.4l0.5,2.2l-0.3,3.7
			L16.9,17.2z"/>
	</g>
</g>
</svg>
