<?xml version="1.0" encoding="utf-8"?>
<!-- Generator: Adobe Illustrator 22.1.0, SVG Export Plug-In . SVG Version: 6.00 Build 0)  -->
<svg version="1.1" id="Слой_1" xmlns="http://www.w3.org/2000/svg" xmlns:xlink="http://www.w3.org/1999/xlink" x="0px" y="0px"
	 viewBox="0 0 48 48" style="enable-background:new 0 0 48 48;" xml:space="preserve">
<style type="text/css">
	.st0{fill:#464747;}
	.st1{fill:#303030;}
	.st2{fill:#EDEDF2;}
	.st3{fill:#DDBEA8;}
	.st4{fill:#2C2D2D;}
	.st5{fill:#F9D9C0;}
</style>
<g id="Icons">
	<g>
		<path class="st0" d="M30.5,32.4c-0.6-1-1.2-1.8-0.4-4.4c0.3-1,1.1-2.2,1.9-4c1.7-3.8,1.7-7.9-0.8-12c-1.7-2.7-4.8-4.1-7.9-3.9
			c-2.8,0.3-5.4,2-6.7,4.5c-1,2-1.4,3.3-1.3,5.5c0,1.1,0.2,2.2,0.4,3.3c0.3,1.2,0.9,2.3,0.8,3.5c-0.2,2.3-2.3,4.4-4.1,5.5"/>
		<path class="st1" d="M21.1,25.5c0,0-1.4-1.3-1.8-2l-0.9-0.8c0,0,1.1,3.7,0.7,5.1l1.9-0.3C20.9,27.5,20.8,26,21.1,25.5z"/>
		<path class="st2" d="M20.7,26.1l-0.1,1.1l-1.4,0.4L17,28.2h0l-1.3,0.4c-0.6,0.2-1.2,0.4-1.8,0.7c-0.1,0-0.1,0.1-0.1,0.1
			c-1.7,1-3.1,2.5-3.8,4.3l-1.3,3.5c0,0,14.7,6.1,30.7,0L38,33.7c-0.9-2.4-3-4.3-5.7-5.1L30.2,28"/>
		<path class="st3" d="M27.9,27.1c0,3.8-7.4,3.8-7.4,0v-2.4l7.4,0.8V27.1z"/>
		<path class="st4" d="M28.7,20c0,0,1.1,2.3-0.8,5c-1.9,2.8-2.5,2.8-1.2,5.5c1.3,2.6,4.4,3,1.8,6.1c0,0,3.3-2.2,2.6-3.8
			c-0.7-1.6-1.8-2.3-1-5C30.9,25.1,31.5,22.6,28.7,20z"/>
		<path class="st5" d="M21,12.9c0,0-0.1,1.8-1.4,3.8c-1.4,2-1.9,3.7-1.5,5.2c0.4,1.4,1.8,3.2,3.3,4.3c1.5,1.1,4,1.4,5.8-0.3
			c1.8-1.7,2.3-4.2,1.7-5.6C28.3,19,27.5,18.9,26,18C24.5,17,21.6,15.1,21,12.9z"/>
	</g>
</g>
</svg>
